<svg xmlns="http://www.w3.org/2000/svg" viewBox="0 0 512 512" fill="none">
  <rect width="512" height="512" rx="120" fill="#171717"/>
  <circle cx="182" cy="170" r="52" fill="#F6F1EA"/>
  <circle cx="330" cy="150" r="36" fill="#F6F1EA" opacity="0.92"/>
  <circle cx="320" cy="286" r="94" fill="#F6F1EA" opacity="0.98"/>
  <path d="M202 292c0-43.078 34.922-78 78-78h31c-6.182 4.564-11.795 10.135-16.684 16.604A67.74 67.74 0 0 0 281 269c-24.853 0-45 20.147-45 45v76h-34v-98Z" fill="#171717"/>
  <path d="M317 246c-9.822 0-19.242 3.902-26.188 10.849A36.95 36.95 0 0 0 280 283c0 9.782 3.865 19.163 10.75 26.094A36.95 36.95 0 0 0 317 320c9.822 0 19.242-3.902 26.188-10.849A36.95 36.95 0 0 0 354 283c0-9.782-3.865-19.163-10.75-26.094A36.95 36.95 0 0 0 317 246Zm0 22c4.117 0 8.066 1.636 10.979 4.548A15.48 15.48 0 0 1 332.5 283c0 4.11-1.63 8.053-4.53 10.964a15.48 15.48 0 0 1-10.97 4.536 15.48 15.48 0 0 1-10.979-4.548A15.48 15.48 0 0 1 301.5 283c0-4.11 1.63-8.053 4.53-10.964A15.48 15.48 0 0 1 317 268Z" fill="#171717"/>
</svg>
